<svg xmlns="http://www.w3.org/2000/svg" width="24" height="25" viewBox="0 0 24 25">
  <g id="Group_95485" data-name="Group 95485" transform="translate(-10242 21732)">
    <rect id="Rectangle_29390" data-name="Rectangle 29390" width="24" height="25" rx="8" transform="translate(10242 -21732)" fill="#eee"/>
    <g id="Group_95110" data-name="Group 95110" transform="translate(9877.908 -22078.553)">
      <g id="_7-Check" data-name="7-Check" transform="translate(369.428 352.556)">
        <path id="Path_155137" data-name="Path 155137" d="M33.412,43.69a1.389,1.389,0,0,0-1.074,2.266l3.529,4.323a1.261,1.261,0,0,0,1.054.468,1.352,1.352,0,0,0,1.062-.629l7.33-11.805,0-.006a.38.38,0,0,0-.1-.446.389.389,0,0,0-.566.039l-.008.01-7.393,8.353a.32.32,0,0,1-.456.025l-2.453-2.233a1.383,1.383,0,0,0-.934-.364Z" transform="translate(-32.027 -37.756)" fill="#121212"/>
      </g>
    </g>
  </g>
</svg>
