<svg xmlns="http://www.w3.org/2000/svg" width="26" height="26" viewBox="0 0 26 26">
  <g id="Group_131140" data-name="Group 131140" transform="translate(-3.768 -7.329)">
    <path id="Union_43" data-name="Union 43" d="M19.987,18.276a.526.526,0,0,1,0-1.052h1.289a3.563,3.563,0,0,0,2.52-1.063,4.091,4.091,0,0,0,1.179-2.631,4.174,4.174,0,0,0-.814-2.787A3.659,3.659,0,0,0,21.8,9.3a.5.5,0,0,1-.359-.245.538.538,0,0,1-.048-.434,6.1,6.1,0,0,0-.724-5.2,5.275,5.275,0,0,0-4.351-2.395h-.042a5.067,5.067,0,0,0-3,.993A5.593,5.593,0,0,0,11.314,4.67a.535.535,0,0,1-.284.3.49.49,0,0,1-.413-.016,3.657,3.657,0,0,0-1.638-.4,4.053,4.053,0,0,0-3.9,4.179.516.516,0,0,1-.507.525A3.882,3.882,0,0,0,.942,13.33,4.122,4.122,0,0,0,2.066,16.1a3.56,3.56,0,0,0,2.675,1.127h2.71a.526.526,0,0,1,0,1.052H4.725A4.866,4.866,0,0,1,.009,13.55,4.957,4.957,0,0,1,4.075,8.266,5.356,5.356,0,0,1,5.613,4.915,4.735,4.735,0,0,1,8.966,3.5h.023a4.6,4.6,0,0,1,1.6.29A6.613,6.613,0,0,1,12.92,1.042,6.1,6.1,0,0,1,16.315,0a5.987,5.987,0,0,1,2.171.408,6.518,6.518,0,0,1,3.476,3.229,7.189,7.189,0,0,1,.556,4.749,5.036,5.036,0,0,1,3.45,5.449,4.843,4.843,0,0,1-4.69,4.44Z" transform="translate(3.768 7.329)" fill="#fff"/>
    <path id="Path_184412" data-name="Path 184412" d="M34.187,54.837H23.134A1.047,1.047,0,0,1,22.08,53.8V46.839A1.047,1.047,0,0,1,23.134,45.8H34.187a1.047,1.047,0,0,1,1.054,1.039V53.8A1.047,1.047,0,0,1,34.187,54.837ZM23.134,46.67a.171.171,0,0,0-.172.17V53.8a.171.171,0,0,0,.172.17H34.187a.171.171,0,0,0,.172-.17V46.839a.171.171,0,0,0-.172-.17Z" transform="translate(-11.285 -21.657)" fill="#fff"/>
    <path id="Path_184412_-_Outline" data-name="Path 184412 - Outline" d="M34.188,54.984H23.135a1.2,1.2,0,0,1-1.2-1.188V46.838a1.2,1.2,0,0,1,1.2-1.188H34.188a1.2,1.2,0,0,1,1.2,1.188V53.8A1.2,1.2,0,0,1,34.188,54.984ZM23.135,45.947a.9.9,0,0,0-.9.891V53.8a.9.9,0,0,0,.9.891H34.188a.9.9,0,0,0,.9-.891V46.838a.9.9,0,0,0-.9-.891Zm11.053,8.168H23.135a.321.321,0,0,1-.322-.318V46.838a.321.321,0,0,1,.322-.318H34.188a.321.321,0,0,1,.322.318V53.8A.321.321,0,0,1,34.188,54.114Zm-11.053-7.3a.022.022,0,0,0-.022.021V53.8a.022.022,0,0,0,.022.021H34.188a.022.022,0,0,0,.022-.021V46.838a.021.021,0,0,0-.022-.021Z" transform="translate(-11.286 -21.655)" fill="#fff"/>
    <path id="Path_184413" data-name="Path 184413" d="M35.363,37.216H27.291a.438.438,0,0,1-.441-.435v-3.3a4.477,4.477,0,0,1,8.954,0v3.3A.438.438,0,0,1,35.363,37.216Zm-7.631-.87h7.189V33.484a3.6,3.6,0,0,0-7.189,0Z" transform="translate(-13.952 -12.203)" fill="#fff"/>
    <path id="Path_184413_-_Outline" data-name="Path 184413 - Outline" d="M35.363,37.362H27.292a.588.588,0,0,1-.591-.583v-3.3a4.628,4.628,0,0,1,9.255,0v3.3A.588.588,0,0,1,35.363,37.362Zm-4.036-8.146A4.3,4.3,0,0,0,27,33.483v3.3a.289.289,0,0,0,.291.287h8.072a.289.289,0,0,0,.291-.287v-3.3A4.3,4.3,0,0,0,31.327,29.217Zm3.745,7.276h-7.49v-3.01a3.745,3.745,0,0,1,7.49,0Zm-7.189-.3h6.889V33.483a3.445,3.445,0,0,0-6.889,0Z" transform="translate(-13.952 -12.201)" fill="#fff"/>
    <path id="Path_184414" data-name="Path 184414" d="M35.133,54.4a1.453,1.453,0,1,1,1.473-1.448A1.463,1.463,0,0,1,35.133,54.4Zm0-2.031a.583.583,0,1,0,.591.583A.587.587,0,0,0,35.133,52.364Z" transform="translate(-17.758 -24.872)" fill="#fff"/>
    <path id="Path_184414_-_Outline" data-name="Path 184414 - Outline" d="M35.134,54.542a1.625,1.625,0,0,1-1.149-.469,1.579,1.579,0,0,1-.475-1.133,1.628,1.628,0,0,1,2.774-1.128,1.579,1.579,0,0,1,.473,1.134A1.615,1.615,0,0,1,35.134,54.542Zm0-2.905a1.316,1.316,0,0,0-1.325,1.3,1.287,1.287,0,0,0,.387.923,1.324,1.324,0,0,0,.936.382h0a1.316,1.316,0,0,0,1.323-1.3,1.286,1.286,0,0,0-.385-.924A1.323,1.323,0,0,0,35.136,51.637Zm0,2.04a.731.731,0,1,1,.741-.731A.737.737,0,0,1,35.134,53.676Zm0-1.166a.435.435,0,1,0,.441.434A.438.438,0,0,0,35.134,52.511Z" transform="translate(-17.758 -24.87)" fill="#fff"/>
    <path id="Path_184415" data-name="Path 184415" d="M36.441,58.218A.438.438,0,0,1,36,57.783V56.6a.441.441,0,0,1,.882,0v1.179A.438.438,0,0,1,36.441,58.218Z" transform="translate(-19.066 -27.517)" fill="#fff"/>
    <path id="Path_184415_-_Outline" data-name="Path 184415 - Outline" d="M36.441,58.365a.588.588,0,0,1-.591-.583V56.6a.592.592,0,0,1,1.183,0v1.179A.588.588,0,0,1,36.441,58.365Zm0-2.048a.289.289,0,0,0-.291.287v1.179a.291.291,0,0,0,.581,0V56.6A.289.289,0,0,0,36.441,56.317Z" transform="translate(-19.066 -27.515)" fill="#fff"/>
  </g>
</svg>
