<svg xmlns="http://www.w3.org/2000/svg" width="26" height="26" viewBox="0 0 26 26">
  <g id="Group_131143" data-name="Group 131143" transform="translate(0.15 0.15)">
    <path id="Path_184404" data-name="Path 184404" d="M358.684,28V25.891a1.526,1.526,0,1,0-.753,0V27.62H354.8a.377.377,0,0,0-.377.377v5.062a.377.377,0,0,0,.753,0V28.373h3.127A.376.376,0,0,0,358.684,28Zm-1.149-3.584a.772.772,0,1,1,.772.772A.773.773,0,0,1,357.535,24.413Z" transform="translate(-336.636 -21.74)" fill="#fff"/>
    <path id="Path_184404_-_Outline" data-name="Path 184404 - Outline" d="M358.306,22.737A1.674,1.674,0,0,1,358.831,26V28a.525.525,0,0,1-.525.525h-2.979v4.537a.525.525,0,0,1-1.05,0V28a.525.525,0,0,1,.525-.525h2.979V26a1.674,1.674,0,0,1,.525-3.263Zm0,5.486a.229.229,0,0,0,.228-.228V25.774l.112-.028a1.377,1.377,0,1,0-.68,0l.112.028v1.993H354.8a.229.229,0,0,0-.228.228v5.062a.228.228,0,0,0,.457,0V28.223Zm0-4.733a.921.921,0,1,1-.921.921A.922.922,0,0,1,358.306,23.49Zm0,1.545a.624.624,0,1,0-.624-.624A.625.625,0,0,0,358.306,25.035Z" transform="translate(-336.635 -21.738)" fill="#fff"/>
    <path id="Path_184405" data-name="Path 184405" d="M406.67,139.468a1.528,1.528,0,0,0-1.478,1.149h-2.106a.376.376,0,0,0-.377.377v2.794a.377.377,0,0,0,.753,0V141.37h1.729a1.526,1.526,0,1,0,1.478-1.9Zm0,2.3a.772.772,0,1,1,.772-.772A.773.773,0,0,1,406.67,141.766Z" transform="translate(-382.494 -132.468)" fill="#fff"/>
    <path id="Path_184405_-_Outline" data-name="Path 184405 - Outline" d="M406.668,139.318a1.674,1.674,0,1,1-1.59,2.2h-1.47v2.269a.525.525,0,0,1-1.05,0v-2.794a.525.525,0,0,1,.525-.525h1.995A1.673,1.673,0,0,1,406.668,139.318Zm0,3.051a1.377,1.377,0,1,0-1.335-1.717l-.028.112h-2.221a.229.229,0,0,0-.228.228v2.794a.228.228,0,0,0,.457,0V141.22H405.3l.028.112A1.376,1.376,0,0,0,406.668,142.369Zm0-2.3a.921.921,0,1,1-.921.921A.922.922,0,0,1,406.668,140.071Zm0,1.545a.624.624,0,1,0-.624-.624A.625.625,0,0,0,406.668,141.616Z" transform="translate(-382.492 -132.466)" fill="#fff"/>
    <path id="Path_184406" data-name="Path 184406" d="M0,140.992a1.526,1.526,0,0,0,3,.377H4.733v2.417a.377.377,0,1,0,.753,0v-2.794a.376.376,0,0,0-.377-.376H3a1.526,1.526,0,0,0-3,.376Zm1.526-.772a.772.772,0,1,1-.772.772.773.773,0,0,1,.772-.772Z" transform="translate(-0.002 -132.467)" fill="#fff"/>
    <path id="Path_184406_-_Outline" data-name="Path 184406 - Outline" d="M1.524,139.317h0a1.673,1.673,0,0,1,1.59,1.149H5.108a.525.525,0,0,1,.525.525v2.794a.525.525,0,0,1-1.05,0v-2.269H3.113a1.674,1.674,0,1,1-1.59-2.2Zm3.584,4.7a.229.229,0,0,0,.228-.228v-2.794a.229.229,0,0,0-.228-.228H2.887l-.028-.112a1.377,1.377,0,1,0,0,.68l.028-.112H4.88v2.566A.229.229,0,0,0,5.108,144.013ZM1.524,140.07a.921.921,0,1,1-.921.921A.922.922,0,0,1,1.524,140.07Zm0,1.545a.624.624,0,1,0-.624-.624A.625.625,0,0,0,1.524,141.615Z" transform="translate(0 -132.465)" fill="#fff"/>
    <path id="Path_184407" data-name="Path 184407" d="M51.419,28.374h3.127V33.06a.377.377,0,1,0,.753,0V28a.376.376,0,0,0-.377-.377H51.8V25.892a1.525,1.525,0,1,0-.753,0V28A.377.377,0,0,0,51.419,28.374Zm-.772-3.961a.772.772,0,1,1,.773.772A.773.773,0,0,1,50.646,24.413Z" transform="translate(-47.39 -21.741)" fill="#fff"/>
    <path id="Path_184407_-_Outline" data-name="Path 184407 - Outline" d="M54.92,33.583a.525.525,0,0,1-.525-.525V28.521H51.417A.525.525,0,0,1,50.892,28V26a1.674,1.674,0,1,1,1.05,0v1.47H54.92a.525.525,0,0,1,.525.525v5.062A.525.525,0,0,1,54.92,33.583Zm-3.5-10.549a1.377,1.377,0,0,0-.34,2.712l.112.028V28a.228.228,0,0,0,.228.228h3.275v4.834a.228.228,0,1,0,.457,0V28a.229.229,0,0,0-.228-.228H51.645V25.775l.112-.028a1.377,1.377,0,0,0-.34-2.712Zm0,2.3a.921.921,0,1,1,.921-.921A.922.922,0,0,1,51.417,25.332Zm0-1.545a.624.624,0,1,0,.624.624A.625.625,0,0,0,51.417,23.788Z" transform="translate(-47.388 -21.739)" fill="#fff"/>
    <path id="Path_184408" data-name="Path 184408" d="M180.433,11.7a.376.376,0,0,0,.377-.377V3a1.526,1.526,0,1,0-.753,0v8.317A.377.377,0,0,0,180.433,11.7ZM179.66,1.526a.772.772,0,1,1,.772.772A.773.773,0,0,1,179.66,1.526Z" transform="translate(-169.927 -0.002)" fill="#fff"/>
    <path id="Path_184408_-_Outline" data-name="Path 184408 - Outline" d="M180.431,11.844a.525.525,0,0,1-.525-.525V3.113a1.674,1.674,0,1,1,1.05,0v8.206A.525.525,0,0,1,180.431,11.844Zm0-11.7a1.377,1.377,0,0,0-.34,2.712l.112.028v8.432a.228.228,0,0,0,.457,0V2.887l.112-.028a1.377,1.377,0,0,0-.34-2.712Zm0,2.3a.921.921,0,1,1,.921-.921A.922.922,0,0,1,180.431,2.445Zm0-1.545a.624.624,0,1,0,.624.624A.625.625,0,0,0,180.431.9Z" transform="translate(-169.925)" fill="#fff"/>
    <path id="Path_184409" data-name="Path 184409" d="M273.84,11.7a.377.377,0,0,0,.377-.377V3a1.526,1.526,0,1,0-.753,0v8.317A.377.377,0,0,0,273.84,11.7Zm-.772-10.172a.772.772,0,1,1,.772.772A.773.773,0,0,1,273.067,1.526Z" transform="translate(-258.645 -0.002)" fill="#fff"/>
    <path id="Path_184409_-_Outline" data-name="Path 184409 - Outline" d="M273.838,11.844a.525.525,0,0,1-.525-.525V3.113a1.674,1.674,0,1,1,1.05,0v8.206A.525.525,0,0,1,273.838,11.844Zm0-11.7a1.377,1.377,0,0,0-.34,2.712l.112.028v8.432a.228.228,0,0,0,.457,0V2.887l.112-.028a1.377,1.377,0,0,0-.34-2.712Zm0,2.3a.921.921,0,1,1,.921-.921A.922.922,0,0,1,273.838,2.445Zm0-1.545a.624.624,0,1,0,.624.624A.625.625,0,0,0,273.838.9Z" transform="translate(-258.643)" fill="#fff"/>
    <path id="Path_184410" data-name="Path 184410" d="M69.554,253.926a1.86,1.86,0,0,1,1.712,1.13.377.377,0,1,0,.692-.3,2.614,2.614,0,1,0-3.865,3.193,3.729,3.729,0,0,0-1.911,1.9,4.139,4.139,0,0,0-1.573-1.136,2.9,2.9,0,1,0-3.093,0,4.162,4.162,0,0,0-1.566,1.135,3.724,3.724,0,0,0-1.922-1.9,2.614,2.614,0,1,0-2.924,0,3.766,3.766,0,0,0-2.243,3.441v2.161a1.06,1.06,0,0,0,1.058,1.058h5.015v.407a1.146,1.146,0,0,0,1.145,1.145h2.1a.377.377,0,0,0,0-.753h-2.1a.392.392,0,0,1-.392-.392v-2.435a3.372,3.372,0,1,1,6.744-.049v2.484a.392.392,0,0,1-.392.392h-2.1a.377.377,0,0,0,0,.753h2.1a1.146,1.146,0,0,0,1.145-1.145v-.407H72.2a1.06,1.06,0,0,0,1.058-1.058v-2.205a3.709,3.709,0,0,0-2.238-3.4,2.613,2.613,0,0,0,.939-1.138.377.377,0,1,0-.692-.3,1.861,1.861,0,1,1-1.712-2.591ZM54.7,255.787a1.861,1.861,0,1,1,1.861,1.861A1.863,1.863,0,0,1,54.7,255.787Zm4.231,6.8v1.275H53.92a.306.306,0,0,1-.305-.305v-2.161a2.951,2.951,0,0,1,5.809-.774A4.219,4.219,0,0,0,58.935,262.587Zm4.125-4.174a2.144,2.144,0,1,1,2.144-2.144A2.147,2.147,0,0,1,63.06,258.413Zm6.455-.012a2.958,2.958,0,0,1,2.99,2.95v2.205a.306.306,0,0,1-.305.305H67.185v-1.324a4.125,4.125,0,0,0-.478-1.923A2.947,2.947,0,0,1,69.514,258.4Z" transform="translate(-50.21 -240.465)" fill="#fff"/>
    <path id="Path_184410_-_Outline" data-name="Path 184410 - Outline" d="M56.564,253.023a2.761,2.761,0,0,1,1.75,4.9,3.852,3.852,0,0,1,1.674,1.668,4.339,4.339,0,0,1,1.228-.9,3.046,3.046,0,1,1,3.693-.005,4.257,4.257,0,0,1,1.235.9,3.877,3.877,0,0,1,1.662-1.663,2.762,2.762,0,1,1,4.288-3.223.525.525,0,1,1-.965.412,1.713,1.713,0,1,0,0,1.345.525.525,0,1,1,.965.412,2.759,2.759,0,0,1-.789,1.051,3.853,3.853,0,0,1,2.1,3.428v2.205a1.208,1.208,0,0,1-1.207,1.207H67.331v.259a1.3,1.3,0,0,1-1.293,1.293h-2.1a.525.525,0,0,1,0-1.05h2.1a.244.244,0,0,0,.244-.243v-2.484a3.233,3.233,0,0,0-3.267-3.223,3.261,3.261,0,0,0-3.18,3.273v2.435a.244.244,0,0,0,.244.243h2.1a.525.525,0,0,1,0,1.05h-2.1a1.3,1.3,0,0,1-1.293-1.293v-.259H53.919a1.208,1.208,0,0,1-1.207-1.207v-2.161a3.905,3.905,0,0,1,2.106-3.469,2.761,2.761,0,0,1,1.746-4.9Zm3.345,7.1-.1-.214a3.56,3.56,0,0,0-1.846-1.826l-.248-.107.223-.152a2.466,2.466,0,1,0-2.758,0l.223.151-.246.108a3.607,3.607,0,0,0-2.154,3.305v2.161a.911.911,0,0,0,.91.91h5.163v.555a1,1,0,0,0,1,1h2.1a.228.228,0,0,0,0-.457h-2.1a.541.541,0,0,1-.54-.54v-2.435a3.559,3.559,0,0,1,3.472-3.569h.052a3.53,3.53,0,0,1,3.516,3.52v2.484a.541.541,0,0,1-.54.54h-2.1a.228.228,0,1,0,0,.457h2.1a1,1,0,0,0,1-1v-.555H72.2a.911.911,0,0,0,.91-.91v-2.205a3.558,3.558,0,0,0-2.149-3.263l-.248-.107.224-.151a2.462,2.462,0,0,0,.886-1.074.228.228,0,1,0-.42-.179,2.009,2.009,0,1,1,0-1.578.228.228,0,1,0,.42-.179,2.466,2.466,0,1,0-3.646,3.012l.223.151-.247.108a3.582,3.582,0,0,0-1.835,1.822l-.1.212-.152-.176a3.976,3.976,0,0,0-1.517-1.1l-.266-.108.242-.154a2.749,2.749,0,1,0-2.934,0l.242.153-.265.109a4.03,4.03,0,0,0-1.51,1.095Zm-3.345-6.35a2.009,2.009,0,1,1-2.009,2.009A2.011,2.011,0,0,1,56.564,253.776Zm0,3.722a1.713,1.713,0,1,0-1.713-1.713A1.715,1.715,0,0,0,56.564,257.5Zm6.495-3.524a2.293,2.293,0,1,1-2.293,2.293A2.3,2.3,0,0,1,63.058,253.974Zm0,4.289a2,2,0,1,0-2-2A2,2,0,0,0,63.058,258.263Zm6.5-.012a3.1,3.1,0,0,1,3.094,3.1v2.205a.454.454,0,0,1-.454.454H67.035v-1.473a3.963,3.963,0,0,0-.46-1.854l-.027-.051.015-.056a3.079,3.079,0,0,1,2.949-2.323Zm2.641,5.461a.157.157,0,0,0,.157-.157V261.35a2.8,2.8,0,0,0-5.491-.754,4.262,4.262,0,0,1,.467,1.94v1.176Zm-15.629-5.461a3.1,3.1,0,0,1,3,2.331l.014.056-.027.051a4.066,4.066,0,0,0-.471,1.9v1.423H53.919a.454.454,0,0,1-.454-.454v-2.161A3.14,3.14,0,0,1,56.569,258.251Zm2.695,2.351a2.8,2.8,0,0,0-2.694-2.054,2.843,2.843,0,0,0-2.808,2.846v2.161a.157.157,0,0,0,.157.157h4.866v-1.127A4.364,4.364,0,0,1,59.264,260.6Z" transform="translate(-50.208 -240.463)" fill="#fff"/>
  </g>
</svg>
