<svg xmlns="http://www.w3.org/2000/svg" width="26" height="26.001" viewBox="0 0 26 26.001">
  <g id="Group_131144" data-name="Group 131144" transform="translate(-1.812 -1.811)">
    <path id="Path_184416" data-name="Path 184416" d="M21.334,22.914a.369.369,0,0,1-.119-.02,9.668,9.668,0,0,1-6.28-6.28.367.367,0,0,1,.047-.33L20.435,8.5A17.165,17.165,0,0,1,35.474,2.016a.367.367,0,0,1,.338.337A17.164,17.164,0,0,1,29.34,17.383l-.013.01-7.783,5.454a.364.364,0,0,1-.21.068ZM15.69,16.551a8.928,8.928,0,0,0,5.587,5.587L28.9,16.8a16.408,16.408,0,0,0,6.2-14.07,16.4,16.4,0,0,0-14.076,6.21Z" transform="translate(-8.203 -0.002)" fill="#fff"/>
    <path id="Path_184416_-_Outline" data-name="Path 184416 - Outline" d="M21.332,23.061a.517.517,0,0,1-.167-.028,9.829,9.829,0,0,1-6.373-6.375.515.515,0,0,1,.067-.46l5.458-7.788a16.828,16.828,0,0,1,6.037-4.873,17.911,17.911,0,0,1,7.7-1.725c.476,0,.958.019,1.435.055a.512.512,0,0,1,.474.474A17.312,17.312,0,0,1,29.429,17.5l-.015.011-7.787,5.456a.509.509,0,0,1-.295.095ZM20.553,8.588,15.1,16.368a.219.219,0,0,0-.028.2,9.535,9.535,0,0,0,6.185,6.187.212.212,0,0,0,.2-.027l7.793-5.461a17.016,17.016,0,0,0,6.413-14.9.217.217,0,0,0-.2-.2c-.469-.036-.945-.054-1.412-.054a17.613,17.613,0,0,0-7.567,1.7A16.53,16.53,0,0,0,20.553,8.588ZM21.3,22.3l-.071-.024a9.076,9.076,0,0,1-5.68-5.68l-.024-.071,5.383-7.681a16.046,16.046,0,0,1,5.77-4.651,17.189,17.189,0,0,1,7.372-1.648c.351,0,.708.011,1.06.031l.131.008.008.131a16.592,16.592,0,0,1-6.261,14.2l-.005,0Zm-5.446-5.729a8.779,8.779,0,0,0,5.4,5.4l7.556-5.3A16.285,16.285,0,0,0,34.96,2.866c-.3-.016-.609-.024-.911-.024a16.89,16.89,0,0,0-7.244,1.619,15.749,15.749,0,0,0-5.661,4.562Z" transform="translate(-8.201 0)" fill="#fff"/>
    <path id="Path_184417" data-name="Path 184417" d="M57.245,11.375a.375.375,0,0,1-.069-.006,8.153,8.153,0,0,1-6.462-6.462.367.367,0,1,1,.721-.138,7.418,7.418,0,0,0,5.878,5.878.367.367,0,0,1-.068.727Z" transform="translate(-30.867 -1.591)" fill="#fff"/>
    <path id="Path_184417_-_Outline" data-name="Path 184417 - Outline" d="M57.243,11.521h0a.525.525,0,0,1-.1-.009,8.21,8.21,0,0,1-4.3-2.282,8.209,8.209,0,0,1-2.281-4.3.515.515,0,0,1,.409-.6.515.515,0,0,1,.6.409,7.186,7.186,0,0,0,2,3.763,7.186,7.186,0,0,0,3.763,2,.515.515,0,0,1-.1,1.021Zm-6.171-6.9a.222.222,0,0,0-.041,0,.219.219,0,0,0-.174.256,7.914,7.914,0,0,0,2.2,4.144,7.914,7.914,0,0,0,4.144,2.2.226.226,0,0,0,.04,0v0a.219.219,0,0,0,.041-.433,7.481,7.481,0,0,1-3.917-2.079A7.481,7.481,0,0,1,51.287,4.8.219.219,0,0,0,51.073,4.618Z" transform="translate(-30.865 -1.589)" fill="#fff"/>
    <path id="Path_184418" data-name="Path 184418" d="M40.729,26.228a2.872,2.872,0,1,1,2.032-.84A2.872,2.872,0,0,1,40.729,26.228Zm0-5.012a2.14,2.14,0,1,0,1.513.627A2.14,2.14,0,0,0,40.729,21.216Z" transform="translate(-22.731 -11.73)" fill="#fff"/>
    <path id="Path_184418_-_Outline" data-name="Path 184418 - Outline" d="M40.732,26.375h-.005a3.021,3.021,0,1,1,2.137-.884A2.993,2.993,0,0,1,40.732,26.375Zm0-5.745a2.724,2.724,0,0,0,0,5.449l0,.148v-.148a2.7,2.7,0,0,0,1.922-.8,2.724,2.724,0,0,0-1.926-4.652Zm0,5.014h0a2.289,2.289,0,0,1,0-4.577h0a2.289,2.289,0,0,1-.006,4.577Zm.006-4.281h0a1.992,1.992,0,1,0,1.408.583A2,2,0,0,0,40.727,21.363Z" transform="translate(-22.729 -11.728)" fill="#fff"/>
    <path id="Path_184419" data-name="Path 184419" d="M34.669,55.144h-.022a.367.367,0,0,1-.291-.175L31.47,50.246a.367.367,0,0,1,.626-.383l2.611,4.273,1.977-2.5a5.325,5.325,0,0,0,1.095-3.961l-.241-1.856a.367.367,0,1,1,.727-.095l.241,1.856a6.061,6.061,0,0,1-1.247,4.512l-2.3,2.917a.367.367,0,0,1-.286.138Z" transform="translate(-18.652 -27.508)" fill="#fff"/>
    <path id="Path_184419_-_Outline" data-name="Path 184419 - Outline" d="M34.668,55.29h-.031a.515.515,0,0,1-.408-.246l-2.886-4.723a.515.515,0,1,1,.879-.537l2.5,4.091,1.845-2.336a5.209,5.209,0,0,0,1.064-3.851l-.241-1.856a.515.515,0,0,1,.444-.577.522.522,0,0,1,.067,0,.516.516,0,0,1,.51.449l.241,1.856a6.248,6.248,0,0,1-1.278,4.622L35.07,55.1A.513.513,0,0,1,34.668,55.29Zm-.017-.3h.017a.217.217,0,0,0,.171-.082l2.3-2.917a5.949,5.949,0,0,0,1.216-4.4l-.241-1.856a.218.218,0,1,0-.433.056l.241,1.856A5.508,5.508,0,0,1,36.8,51.722L34.69,54.393l-2.722-4.455a.219.219,0,1,0-.373.228l2.886,4.723A.219.219,0,0,0,34.651,54.994Z" transform="translate(-18.65 -27.506)" fill="#fff"/>
    <path id="Path_184420" data-name="Path 184420" d="M7.127,30.259a.367.367,0,0,1-.191-.054L2.214,27.319a.367.367,0,0,1-.037-.6l2.917-2.3a6.064,6.064,0,0,1,4.512-1.247l1.856.241a.367.367,0,1,1-.095.727L9.512,23.9A5.327,5.327,0,0,0,5.55,24.99l-2.5,1.978,4.273,2.611a.367.367,0,0,1-.191.68Z" transform="translate(-0.05 -13.399)" fill="#fff"/>
    <path id="Path_184420_-_Outline" data-name="Path 184420 - Outline" d="M7.126,30.405h0a.515.515,0,0,1-.268-.075L2.135,27.444a.515.515,0,0,1-.051-.843L5,24.3a6.212,6.212,0,0,1,4.622-1.278l1.857.241a.515.515,0,0,1-.066,1.026.521.521,0,0,1-.067,0l-1.856-.241A5.178,5.178,0,0,0,5.64,25.105L3.3,26.951l4.091,2.5a.515.515,0,0,1-.269.954Zm1.713-7.139A5.941,5.941,0,0,0,5.184,24.53l-2.917,2.3a.219.219,0,0,0,.022.358l4.722,2.886a.218.218,0,0,0,.113.032v0a.219.219,0,0,0,.114-.4L2.785,26.982l2.672-2.11a5.475,5.475,0,0,1,4.072-1.125l1.856.241a.218.218,0,1,0,.056-.433l-1.856-.241A5.937,5.937,0,0,0,8.839,23.266Z" transform="translate(-0.048 -13.397)" fill="#fff"/>
    <path id="Path_184421" data-name="Path 184421" d="M14.591,65.117a.367.367,0,0,1-.259-.626l3.276-3.276a.367.367,0,1,1,.519.519L14.85,65.009A.367.367,0,0,1,14.591,65.117Z" transform="translate(-7.766 -37.453)" fill="#fff"/>
    <path id="Path_184421_-_Outline" data-name="Path 184421 - Outline" d="M14.589,65.263h0a.515.515,0,0,1-.364-.879L17.5,61.108a.515.515,0,1,1,.728.728l-3.276,3.276A.512.512,0,0,1,14.589,65.263Zm3.276-4.01a.217.217,0,0,0-.154.064l-3.276,3.276a.218.218,0,1,0,.309.309l3.276-3.276a.219.219,0,0,0-.154-.373Z" transform="translate(-7.764 -37.451)" fill="#fff"/>
    <path id="Path_184422" data-name="Path 184422" d="M2.329,52.855a.367.367,0,0,1-.259-.626l3.276-3.276a.367.367,0,1,1,.519.519L2.588,52.747a.367.367,0,0,1-.259.107Z" transform="translate(-0.002 -29.688)" fill="#fff"/>
    <path id="Path_184422_-_Outline" data-name="Path 184422 - Outline" d="M2.327,53h0a.515.515,0,0,1-.364-.879l3.276-3.276a.515.515,0,1,1,.728.728L2.691,52.85A.512.512,0,0,1,2.327,53ZM5.6,48.992a.217.217,0,0,0-.154.064L2.173,52.332a.218.218,0,1,0,.309.309l3.276-3.276a.219.219,0,0,0-.154-.373Z" transform="translate(0 -29.687)" fill="#fff"/>
    <path id="Path_184423" data-name="Path 184423" d="M2.935,64.079a.367.367,0,0,1-.259-.626L6.2,59.927a.367.367,0,1,1,.519.519L3.194,63.972a.367.367,0,0,1-.259.107Z" transform="translate(-0.385 -36.638)" fill="#fff"/>
    <path id="Path_184423_-_Outline" data-name="Path 184423 - Outline" d="M2.933,64.226h0a.515.515,0,0,1-.364-.879l3.526-3.526a.515.515,0,1,1,.728.728L3.3,64.075A.512.512,0,0,1,2.933,64.226Zm3.526-4.259a.217.217,0,0,0-.154.064L2.779,63.556a.218.218,0,1,0,.309.309L6.613,60.34a.219.219,0,0,0-.154-.373Z" transform="translate(-0.384 -36.636)" fill="#fff"/>
  </g>
</svg>
