<svg xmlns="http://www.w3.org/2000/svg" width="26" height="25.999" viewBox="0 0 26 25.999">
  <g id="Group_131141" data-name="Group 131141" transform="translate(2.145 0.199)">
    <path id="Path_184394" data-name="Path 184394" d="M23.388,4.2,10.957.056a.548.548,0,0,0-.49,0L-1.678,4.2a.475.475,0,0,0-.267.42v7.683C-1.939,17.812,3.652,22.794,9.077,25l1.4.566a.55.55,0,0,0,.41,0l1.574-.632c5.526-2.158,11.2-7.188,11.2-12.761V4.623a.476.476,0,0,0-.273-.423Zm-.758,7.974c0,5.189-5.432,9.872-10.577,11.88l0,0-1.37.55-1.191-.483c-5.05-2.053-10.4-6.69-10.4-11.816v-7.4L10.718,1.023,22.631,4.91Zm0,0" transform="translate(-0.003 -0.003)" fill="#fff"/>
    <path id="Path_184394_-_Outline" data-name="Path 184394 - Outline" d="M10.676,25.8a.739.739,0,0,1-.28-.054L9,25.18a22.011,22.011,0,0,1-7.613-5.157A11.5,11.5,0,0,1-2.145,12.3V4.62a.671.671,0,0,1,.375-.6l.026-.011L10.388-.126a.758.758,0,0,1,.64,0L23.473,4.02a.67.67,0,0,1,.382.6V12.17a11.532,11.532,0,0,1-3.584,7.8,22.108,22.108,0,0,1-7.745,5.148l-1.572.631A.74.74,0,0,1,10.676,25.8ZM-1.6,4.381a.278.278,0,0,0-.149.239V12.3a11.119,11.119,0,0,0,3.425,7.45,21.92,21.92,0,0,0,7.474,5.062l1.4.566a.355.355,0,0,0,.262,0l1.574-.632a21.7,21.7,0,0,0,7.6-5.053,11.151,11.151,0,0,0,3.476-7.526V4.62a.277.277,0,0,0-.153-.241L10.866.23a.357.357,0,0,0-.313,0l-.026.011ZM10.676,24.814,9.412,24.3A21.4,21.4,0,0,1,2.25,19.5a10.646,10.646,0,0,1-3.365-7.2V4.761L10.714.813l12.11,3.951V12.17a10.68,10.68,0,0,1-3.415,7.27,21.172,21.172,0,0,1-7.282,4.792l-.007,0ZM-.721,5.045V12.3a10.266,10.266,0,0,0,3.256,6.924,21,21,0,0,0,7.025,4.71l1.117.453,1.3-.523a20.765,20.765,0,0,0,7.147-4.7,10.3,10.3,0,0,0,3.3-7V5.05L10.716,1.228Z" transform="translate(0)" fill="#fff"/>
    <path id="Path_184395" data-name="Path 184395" d="M80.7,148.467a.435.435,0,0,0-.687-.065.662.662,0,0,0-.054.82l2.574,3.6a.434.434,0,0,0,.678.074l5.994-5.823a.661.661,0,0,0,.07-.818.436.436,0,0,0-.685-.084l-5.625,5.464Zm0,0" transform="matrix(0.985, -0.174, 0.174, 0.985, -98.279, -119.703)" fill="#fff"/>
    <path id="Path_184395_-_Outline" data-name="Path 184395 - Outline" d="M82.9,153.22a.653.653,0,0,1-.531-.286l-2.574-3.6a.856.856,0,0,1,.074-1.073.639.639,0,0,1,.457-.2.653.653,0,0,1,.531.286l2.131,2.98,5.461-5.3a.638.638,0,0,1,.444-.186.654.654,0,0,1,.541.3.855.855,0,0,1-.1,1.071l-5.994,5.823A.637.637,0,0,1,82.9,153.22Zm-2.574-4.762a.245.245,0,0,0-.176.08.465.465,0,0,0-.035.567l2.574,3.6a.265.265,0,0,0,.211.122.243.243,0,0,0,.17-.075l5.994-5.823a.464.464,0,0,0,.045-.566.267.267,0,0,0-.216-.129.243.243,0,0,0-.17.075l-5.789,5.624-2.4-3.353A.261.261,0,0,0,80.326,148.457Z" transform="matrix(0.985, -0.174, 0.174, 0.985, -98.275, -119.7)" fill="#fff"/>
  </g>
</svg>
