<svg xmlns="http://www.w3.org/2000/svg" width="26" height="26" viewBox="0 0 26 26">
  <g id="Group_131142" data-name="Group 131142" transform="translate(-73.5 -0.981)">
    <path id="Path_184396" data-name="Path 184396" d="M98.253,284.53a1.252,1.252,0,0,0,1.247-1.255v-5.02A1.252,1.252,0,0,0,98.253,277H74.747a1.252,1.252,0,0,0-1.247,1.255v5.02a1.252,1.252,0,0,0,1.247,1.255h.534c.011.01,22.434-.009,22.438,0Zm-23.685-1.255v-5.02a.179.179,0,0,1,.178-.179H98.253a.179.179,0,0,1,.178.179v1.972H89.207a.538.538,0,0,0,0,1.076h9.225v1.972a.179.179,0,0,1-.178.179H74.747A.179.179,0,0,1,74.568,283.275Zm1.781,1.255h0Z" transform="translate(0 -257.552)" fill="#fff"/>
    <path id="Path_184399" data-name="Path 184399" d="M107.908,302h-.751a.66.66,0,0,0-.657.661v.756a.66.66,0,0,0,.657.661h.751a.66.66,0,0,0,.657-.661v-.756a.66.66,0,0,0-.657-.661Zm.094,1.417a.094.094,0,0,1-.094.094h-.751a.094.094,0,0,1-.094-.094v-.756a.094.094,0,0,1,.094-.094h.751a.094.094,0,0,1,.094.094Z" transform="translate(-29.723 -279.826)" fill="#fff"/>
    <path id="Path_184416" data-name="Path 184416" d="M107.908,302h-.751a.66.66,0,0,0-.657.661v.756a.66.66,0,0,0,.657.661h.751a.66.66,0,0,0,.657-.661v-.756a.66.66,0,0,0-.657-.661Zm.094,1.417a.094.094,0,0,1-.094.094h-.751a.094.094,0,0,1-.094-.094v-.756a.094.094,0,0,1,.094-.094h.751a.094.094,0,0,1,.094.094Z" transform="translate(-26.946 -279.826)" fill="#fff"/>
    <path id="Path_184401" data-name="Path 184401" d="M152.665,14.555l1.929,2.881a1.866,1.866,0,0,0,3.107,0l1.929-2.881a7.668,7.668,0,1,0-6.965,0Zm4.15,2.279a.8.8,0,0,1-1.335,0l-1.1-1.642a7.619,7.619,0,0,0,3.536,0Zm-.667-15.776a6.633,6.633,0,1,1-6.589,6.633A6.611,6.611,0,0,1,156.148,1.058Z" transform="translate(-69.648 1)" fill="#fff"/>
    <path id="Path_184402" data-name="Path 184402" d="M222.034,63.814a.536.536,0,0,0,.534-.538V57.038a.534.534,0,1,0-1.069,0v6.239A.536.536,0,0,0,222.034,63.814Z" transform="translate(-137.458 -51.466)" fill="#fff"/>
    <path id="Path_184403" data-name="Path 184403" d="M252.034,63.814a.536.536,0,0,0,.534-.538V60.838h.979a2.169,2.169,0,0,0,0-4.338h-1.514a.536.536,0,0,0-.534.538v6.239A.536.536,0,0,0,252.034,63.814Zm.534-6.239h.979a1.094,1.094,0,0,1,0,2.187h-.979Z" transform="translate(-165.321 -51.466)" fill="#fff"/>
  </g>
</svg>
