<svg xmlns="http://www.w3.org/2000/svg" width="26" height="26" viewBox="0 0 26 26">
  <g id="Page-1" transform="translate(0.15 0.15)">
    <g id="_038---Cloud-Data" data-name="038---Cloud-Data" transform="translate(-0.15 -0.15)">
      <path id="Shape" d="M22.218,16.071a5.481,5.481,0,0,0-4.244-4.421V2.142C17.974.024,9.354,0,8.987,0S0,.024,0,2.142V19.278c0,.876,1.447,1.5,4.3,1.863-.012.132-.018.266-.018.4A4.025,4.025,0,0,0,8.141,25.7H21.178A4.719,4.719,0,0,0,25.7,20.82,4.8,4.8,0,0,0,22.218,16.071Zm-5.124-4.5A5.091,5.091,0,0,0,12.857,13.9a3.982,3.982,0,0,0-3.152.66c-.235,0-.474.007-.718.007-5.041,0-7.917-.829-8.131-1.3V8.723c2.186,1.113,7.835,1.13,8.131,1.13s5.945-.017,8.131-1.13v2.844Zm.024-3.872c-.2.469-3.079,1.3-8.131,1.3S1.042,8.159.856,7.711V3.154c2.186,1.113,7.835,1.13,8.131,1.13s5.945-.017,8.131-1.13ZM8.987.857c4.992,0,7.862.814,8.124,1.285-.263.471-3.132,1.285-8.124,1.285-5.05,0-7.928-.832-8.131-1.261V2.158c.2-.469,3.081-1.3,8.131-1.3ZM.856,19.264V14.292c1.994,1.016,6.867,1.119,7.932,1.13a4.727,4.727,0,0,0-.938,1.971A3.941,3.941,0,0,0,4.458,20.3C1.773,19.96.941,19.438.856,19.264Zm20.322,5.583H8.141a3.169,3.169,0,0,1-3.006-3.305,3.169,3.169,0,0,1,3.006-3.305h.07a.428.428,0,0,0,.424-.37,3.572,3.572,0,0,1,3.392-3.2,3.144,3.144,0,0,1,.906.133.428.428,0,0,0,.491-.192,4.275,4.275,0,0,1,3.671-2.184,4.553,4.553,0,0,1,4.326,4.064.428.428,0,0,0,.348.362,3.916,3.916,0,0,1,3.077,3.972,3.863,3.863,0,0,1-3.668,4.025Z" transform="translate(0.148 0.148)" fill="#fff"/>
      <path id="Shape_-_Outline" data-name="Shape - Outline" d="M21.176,25.85H8.139a4.173,4.173,0,0,1-4.01-4.31c0-.089,0-.179.008-.271C1.253,20.888-.15,20.236-.15,19.276V2.14C-.15,1.171,1.359.494,4.336.128A42.5,42.5,0,0,1,8.985-.15a42.5,42.5,0,0,1,4.649.278c2.977.366,4.486,1.043,4.486,2.012v9.389a5.6,5.6,0,0,1,4.225,4.423,4.946,4.946,0,0,1,3.5,4.87A4.866,4.866,0,0,1,21.176,25.85ZM8.985.147A43.045,43.045,0,0,0,4.372.422C1.647.758.147,1.368.147,2.14V19.276c0,.542.723,1.279,4.168,1.716l.142.018-.012.142c-.012.132-.017.262-.017.388a3.877,3.877,0,0,0,3.713,4.014H21.176a4.571,4.571,0,0,0,4.375-4.735,4.651,4.651,0,0,0-3.376-4.606l-.09-.025-.016-.092a5.31,5.31,0,0,0-4.129-4.3l-.117-.025V2.14c0-.773-1.5-1.383-4.226-1.718A43.045,43.045,0,0,0,8.985.147ZM21.176,24.993H8.139A3.318,3.318,0,0,1,4.985,21.54a3.318,3.318,0,0,1,3.154-3.453h.07a.281.281,0,0,0,.277-.242,3.72,3.72,0,0,1,3.539-3.328,3.289,3.289,0,0,1,.948.14.279.279,0,0,0,.321-.126,4.436,4.436,0,0,1,3.8-2.257,4.7,4.7,0,0,1,4.475,4.192.279.279,0,0,0,.228.237,4.064,4.064,0,0,1,3.2,4.118A4.011,4.011,0,0,1,21.176,24.993ZM8.139,18.383A3.022,3.022,0,0,0,5.282,21.54,3.022,3.022,0,0,0,8.139,24.7H21.176A3.715,3.715,0,0,0,24.7,20.82a3.768,3.768,0,0,0-2.955-3.826.575.575,0,0,1-.469-.488,4.4,4.4,0,0,0-4.179-3.936,4.139,4.139,0,0,0-3.541,2.108.576.576,0,0,1-.663.262,2.993,2.993,0,0,0-.863-.127A3.423,3.423,0,0,0,8.78,17.885a.579.579,0,0,1-.57.5ZM4.566,20.46l-.129-.016c-2.666-.336-3.59-.86-3.717-1.116L.706,19.3V14.048l.216.11c1.968,1,6.9,1.1,7.866,1.114l.305,0-.191.238a4.6,4.6,0,0,0-.908,1.909l-.023.105-.107.011a3.814,3.814,0,0,0-3.264,2.8ZM1,19.216c.134.142.953.6,3.346.917a4.089,4.089,0,0,1,3.378-2.877,4.906,4.906,0,0,1,.765-1.692C6.9,15.536,2.949,15.379,1,14.524Zm7.983-4.5a31.525,31.525,0,0,1-5.9-.476c-.642-.124-2.158-.461-2.362-.91L.706,13.3V8.479l.216.11C3.084,9.69,8.745,9.7,8.985,9.7s5.9-.013,8.064-1.114l.216-.11v3.234h-.172a4.929,4.929,0,0,0-4.112,2.263l-.055.086-.1-.021a3.833,3.833,0,0,0-3.035.636l-.038.027-.11,0C9.429,14.709,9.209,14.712,8.985,14.712ZM1,13.225c.224.284,2.543,1.19,7.983,1.19.221,0,.441,0,.653-.006h.017a4.13,4.13,0,0,1,3.132-.678,5.224,5.224,0,0,1,4.181-2.312V8.955C14.61,9.987,9.221,10,8.985,10S3.36,9.987,1,8.955ZM8.985,9.143c-4.535,0-8-.725-8.268-1.377L.706,7.739V2.91l.216.11c2.163,1.1,7.824,1.114,8.064,1.114s5.9-.013,8.064-1.114l.216-.11V7.724l-.012.028c-.195.45-1.712.789-2.355.913A31.473,31.473,0,0,1,8.985,9.143ZM1,7.671a4.906,4.906,0,0,0,2.116.7,31.4,31.4,0,0,0,5.867.472,31.177,31.177,0,0,0,5.856-.472,4.626,4.626,0,0,0,2.127-.721V3.386C14.61,4.418,9.221,4.43,8.985,4.43S3.36,4.418,1,3.386Zm7.983-4.1A32.045,32.045,0,0,1,3.074,3.1C2.433,2.979.92,2.65.72,2.228L.706,2.2V2.126L.718,2.1c.195-.45,1.712-.789,2.356-.913A31.475,31.475,0,0,1,8.985.707c4.483,0,7.887.7,8.254,1.361l.04.072-.04.072C16.873,2.87,13.468,3.574,8.985,3.574ZM1.042,2.157A6.021,6.021,0,0,0,3.13,2.81a31.749,31.749,0,0,0,5.855.467c4.813,0,7.452-.758,7.927-1.137C16.437,1.761,13.8,1,8.985,1a31.179,31.179,0,0,0-5.855.472A5.39,5.39,0,0,0,1.042,2.157Z" transform="translate(0.15 0.15)" fill="#fff"/>
    </g>
  </g>
</svg>
